<mxfile host="app.diagrams.net" modified="2021-03-04T16:27:57.067Z" agent="5.0 (Windows NT 10.0; Win64; x64) AppleWebKit/537.36 (KHTML, like Gecko) Chrome/88.0.4324.190 Safari/537.36" etag="boX9_2bT-OQao1w2ccxN" version="14.4.4" type="github">
  <diagram id="uJvcFXQCn8Hm2iaw4MTs" name="Page-1">
    <mxGraphModel dx="2377" dy="1881" grid="1" gridSize="10" guides="1" tooltips="1" connect="1" arrows="1" fold="1" page="1" pageScale="1" pageWidth="827" pageHeight="1169" math="0" shadow="0">
      <root>
        <mxCell id="0" />
        <mxCell id="1" parent="0" />
        <mxCell id="PVHI4mAV19_t1U58k2j2-76" value="" style="rounded=0;whiteSpace=wrap;html=1;strokeWidth=2;fontSize=13;dashed=1;" vertex="1" parent="1">
          <mxGeometry x="-105" y="-90" width="990" height="980" as="geometry" />
        </mxCell>
        <mxCell id="PVHI4mAV19_t1U58k2j2-35" style="edgeStyle=orthogonalEdgeStyle;rounded=0;orthogonalLoop=1;jettySize=auto;html=1;exitX=0.25;exitY=1;exitDx=0;exitDy=0;entryX=1.005;entryY=0.657;entryDx=0;entryDy=0;entryPerimeter=0;fontSize=13;startArrow=classic;startFill=1;" edge="1" parent="1" source="PVHI4mAV19_t1U58k2j2-22" target="PVHI4mAV19_t1U58k2j2-8">
          <mxGeometry relative="1" as="geometry">
            <Array as="points">
              <mxPoint x="360" y="748" />
            </Array>
          </mxGeometry>
        </mxCell>
        <mxCell id="PVHI4mAV19_t1U58k2j2-37" style="edgeStyle=orthogonalEdgeStyle;rounded=0;orthogonalLoop=1;jettySize=auto;html=1;exitX=1;exitY=1;exitDx=0;exitDy=0;startArrow=none;startFill=0;fontSize=13;entryX=0.25;entryY=0;entryDx=0;entryDy=0;" edge="1" parent="1" source="PVHI4mAV19_t1U58k2j2-1" target="PVHI4mAV19_t1U58k2j2-21">
          <mxGeometry relative="1" as="geometry">
            <Array as="points">
              <mxPoint x="150" y="314" />
            </Array>
          </mxGeometry>
        </mxCell>
        <mxCell id="PVHI4mAV19_t1U58k2j2-50" value="Trả lời yêu cầu thanh toán online" style="edgeStyle=orthogonalEdgeStyle;rounded=1;jumpStyle=arc;jumpSize=6;orthogonalLoop=1;jettySize=auto;html=1;exitX=0.5;exitY=0;exitDx=0;exitDy=0;entryX=0;entryY=0.5;entryDx=0;entryDy=0;shadow=0;startArrow=none;startFill=0;targetPerimeterSpacing=0;strokeColor=#000000;fontSize=13;" edge="1" parent="1" source="PVHI4mAV19_t1U58k2j2-1" target="PVHI4mAV19_t1U58k2j2-9">
          <mxGeometry x="0.5918" y="-15" relative="1" as="geometry">
            <Array as="points">
              <mxPoint x="70" y="160" />
              <mxPoint x="70" y="-135" />
            </Array>
            <mxPoint as="offset" />
          </mxGeometry>
        </mxCell>
        <mxCell id="PVHI4mAV19_t1U58k2j2-51" value="Trả lời yêu cầu thanh toán trực tiếp" style="edgeStyle=orthogonalEdgeStyle;rounded=1;jumpStyle=arc;jumpSize=6;orthogonalLoop=1;jettySize=auto;html=1;exitX=0;exitY=0.5;exitDx=0;exitDy=0;entryX=-0.006;entryY=0.052;entryDx=0;entryDy=0;entryPerimeter=0;shadow=0;startArrow=none;startFill=0;targetPerimeterSpacing=0;strokeColor=#000000;fontSize=13;" edge="1" parent="1" source="PVHI4mAV19_t1U58k2j2-1" target="PVHI4mAV19_t1U58k2j2-9">
          <mxGeometry x="0.6954" y="8" relative="1" as="geometry">
            <mxPoint as="offset" />
          </mxGeometry>
        </mxCell>
        <mxCell id="PVHI4mAV19_t1U58k2j2-52" value="Hàng hóa + Hóa đơn" style="edgeStyle=orthogonalEdgeStyle;rounded=1;jumpStyle=arc;jumpSize=6;orthogonalLoop=1;jettySize=auto;html=1;exitX=0.011;exitY=0.649;exitDx=0;exitDy=0;entryX=0.25;entryY=0;entryDx=0;entryDy=0;shadow=0;startArrow=none;startFill=0;targetPerimeterSpacing=0;strokeColor=#000000;fontSize=13;exitPerimeter=0;" edge="1" parent="1" source="PVHI4mAV19_t1U58k2j2-1" target="PVHI4mAV19_t1U58k2j2-9">
          <mxGeometry x="0.4865" y="10" relative="1" as="geometry">
            <Array as="points">
              <mxPoint x="-80" y="277" />
              <mxPoint x="-80" y="-260" />
              <mxPoint x="323" y="-260" />
            </Array>
            <mxPoint as="offset" />
          </mxGeometry>
        </mxCell>
        <mxCell id="PVHI4mAV19_t1U58k2j2-58" style="edgeStyle=orthogonalEdgeStyle;rounded=1;jumpStyle=arc;jumpSize=6;orthogonalLoop=1;jettySize=auto;html=1;exitX=0.5;exitY=0;exitDx=0;exitDy=0;entryX=0.188;entryY=1.051;entryDx=0;entryDy=0;entryPerimeter=0;shadow=0;startArrow=classic;startFill=1;targetPerimeterSpacing=0;strokeColor=#000000;fontSize=13;" edge="1" parent="1" source="PVHI4mAV19_t1U58k2j2-1" target="PVHI4mAV19_t1U58k2j2-57">
          <mxGeometry relative="1" as="geometry" />
        </mxCell>
        <mxCell id="PVHI4mAV19_t1U58k2j2-88" style="edgeStyle=orthogonalEdgeStyle;rounded=1;jumpStyle=arc;jumpSize=6;orthogonalLoop=1;jettySize=auto;html=1;exitX=0.5;exitY=1;exitDx=0;exitDy=0;entryX=0.431;entryY=0.002;entryDx=0;entryDy=0;entryPerimeter=0;shadow=0;startArrow=none;startFill=0;targetPerimeterSpacing=0;strokeColor=#000000;fontSize=13;" edge="1" parent="1" source="PVHI4mAV19_t1U58k2j2-1" target="PVHI4mAV19_t1U58k2j2-69">
          <mxGeometry relative="1" as="geometry" />
        </mxCell>
        <mxCell id="PVHI4mAV19_t1U58k2j2-89" style="edgeStyle=orthogonalEdgeStyle;rounded=1;jumpStyle=arc;jumpSize=6;orthogonalLoop=1;jettySize=auto;html=1;exitX=0;exitY=1;exitDx=0;exitDy=0;entryX=0.342;entryY=0.017;entryDx=0;entryDy=0;entryPerimeter=0;shadow=0;startArrow=none;startFill=0;targetPerimeterSpacing=0;strokeColor=#000000;fontSize=13;" edge="1" parent="1" source="PVHI4mAV19_t1U58k2j2-1" target="PVHI4mAV19_t1U58k2j2-8">
          <mxGeometry relative="1" as="geometry">
            <Array as="points">
              <mxPoint x="-90" y="314" />
              <mxPoint x="-90" y="633" />
            </Array>
          </mxGeometry>
        </mxCell>
        <mxCell id="PVHI4mAV19_t1U58k2j2-90" value="Thống kê doanh số theo ngày" style="edgeLabel;html=1;align=center;verticalAlign=middle;resizable=0;points=[];fontSize=13;rotation=270;" vertex="1" connectable="0" parent="PVHI4mAV19_t1U58k2j2-89">
          <mxGeometry x="-0.2427" y="-1" relative="1" as="geometry">
            <mxPoint x="11" y="37.22" as="offset" />
          </mxGeometry>
        </mxCell>
        <mxCell id="PVHI4mAV19_t1U58k2j2-1" value="Thanh toán hóa đơn" style="ellipse;whiteSpace=wrap;html=1;fontSize=16;strokeWidth=2;" vertex="1" parent="1">
          <mxGeometry x="-10" y="160" width="190" height="180" as="geometry" />
        </mxCell>
        <mxCell id="PVHI4mAV19_t1U58k2j2-39" style="edgeStyle=orthogonalEdgeStyle;rounded=0;orthogonalLoop=1;jettySize=auto;html=1;exitX=0.5;exitY=1;exitDx=0;exitDy=0;entryX=0.75;entryY=0;entryDx=0;entryDy=0;startArrow=classic;startFill=1;fontSize=13;" edge="1" parent="1" source="PVHI4mAV19_t1U58k2j2-6" target="PVHI4mAV19_t1U58k2j2-26">
          <mxGeometry relative="1" as="geometry" />
        </mxCell>
        <mxCell id="PVHI4mAV19_t1U58k2j2-41" style="edgeStyle=orthogonalEdgeStyle;rounded=0;orthogonalLoop=1;jettySize=auto;html=1;exitX=0;exitY=0;exitDx=0;exitDy=0;entryX=0.648;entryY=-0.051;entryDx=0;entryDy=0;entryPerimeter=0;startArrow=classic;startFill=1;fontSize=13;" edge="1" parent="1" source="PVHI4mAV19_t1U58k2j2-6" target="PVHI4mAV19_t1U58k2j2-31">
          <mxGeometry relative="1" as="geometry">
            <Array as="points">
              <mxPoint x="598" y="120" />
              <mxPoint x="298" y="120" />
            </Array>
          </mxGeometry>
        </mxCell>
        <mxCell id="PVHI4mAV19_t1U58k2j2-53" value="Thẻ khách hàng" style="edgeStyle=orthogonalEdgeStyle;rounded=1;jumpStyle=arc;jumpSize=6;orthogonalLoop=1;jettySize=auto;html=1;exitX=0.057;exitY=0.281;exitDx=0;exitDy=0;shadow=0;startArrow=none;startFill=0;targetPerimeterSpacing=0;strokeColor=#000000;fontSize=13;exitPerimeter=0;" edge="1" parent="1" source="PVHI4mAV19_t1U58k2j2-6">
          <mxGeometry x="-0.5631" y="10" relative="1" as="geometry">
            <mxPoint x="380" y="-59" as="targetPoint" />
            <Array as="points">
              <mxPoint x="582" y="211" />
              <mxPoint x="380" y="210" />
            </Array>
            <mxPoint as="offset" />
          </mxGeometry>
        </mxCell>
        <mxCell id="PVHI4mAV19_t1U58k2j2-54" value="Thông tin tài khoản" style="edgeStyle=orthogonalEdgeStyle;rounded=1;jumpStyle=arc;jumpSize=6;orthogonalLoop=1;jettySize=auto;html=1;exitX=1;exitY=0;exitDx=0;exitDy=0;entryX=0.879;entryY=0.003;entryDx=0;entryDy=0;entryPerimeter=0;shadow=0;startArrow=none;startFill=0;targetPerimeterSpacing=0;strokeColor=#000000;fontSize=13;" edge="1" parent="1" source="PVHI4mAV19_t1U58k2j2-6" target="PVHI4mAV19_t1U58k2j2-9">
          <mxGeometry x="0.5915" y="10" relative="1" as="geometry">
            <Array as="points">
              <mxPoint x="732" y="-230" />
              <mxPoint x="429" y="-230" />
            </Array>
            <mxPoint as="offset" />
          </mxGeometry>
        </mxCell>
        <mxCell id="PVHI4mAV19_t1U58k2j2-55" value="Thông tin mặt hàng" style="edgeStyle=orthogonalEdgeStyle;rounded=1;jumpStyle=arc;jumpSize=6;orthogonalLoop=1;jettySize=auto;html=1;exitX=0;exitY=0;exitDx=0;exitDy=0;entryX=0.697;entryY=1.005;entryDx=0;entryDy=0;entryPerimeter=0;shadow=0;startArrow=none;startFill=0;targetPerimeterSpacing=0;strokeColor=#000000;fontSize=13;" edge="1" parent="1" source="PVHI4mAV19_t1U58k2j2-6" target="PVHI4mAV19_t1U58k2j2-9">
          <mxGeometry x="-0.5154" y="-16" relative="1" as="geometry">
            <mxPoint as="offset" />
          </mxGeometry>
        </mxCell>
        <mxCell id="PVHI4mAV19_t1U58k2j2-56" style="edgeStyle=orthogonalEdgeStyle;rounded=1;jumpStyle=arc;jumpSize=6;orthogonalLoop=1;jettySize=auto;html=1;exitX=0.001;exitY=0.441;exitDx=0;exitDy=0;entryX=0.458;entryY=1.012;entryDx=0;entryDy=0;entryPerimeter=0;shadow=0;startArrow=none;startFill=0;targetPerimeterSpacing=0;strokeColor=#000000;fontSize=13;exitPerimeter=0;" edge="1" parent="1" source="PVHI4mAV19_t1U58k2j2-6" target="PVHI4mAV19_t1U58k2j2-9">
          <mxGeometry relative="1" as="geometry" />
        </mxCell>
        <mxCell id="PVHI4mAV19_t1U58k2j2-79" value="Quà tặng" style="edgeStyle=orthogonalEdgeStyle;rounded=1;jumpStyle=arc;jumpSize=6;orthogonalLoop=1;jettySize=auto;html=1;exitX=1;exitY=0.5;exitDx=0;exitDy=0;entryX=0.75;entryY=0;entryDx=0;entryDy=0;shadow=0;startArrow=none;startFill=0;targetPerimeterSpacing=0;strokeColor=#000000;fontSize=13;" edge="1" parent="1" source="PVHI4mAV19_t1U58k2j2-6" target="PVHI4mAV19_t1U58k2j2-9">
          <mxGeometry x="0.4396" y="-10" relative="1" as="geometry">
            <Array as="points">
              <mxPoint x="780" y="250" />
              <mxPoint x="780" y="-270" />
              <mxPoint x="408" y="-270" />
            </Array>
            <mxPoint as="offset" />
          </mxGeometry>
        </mxCell>
        <mxCell id="PVHI4mAV19_t1U58k2j2-6" value="Chăm sóc khách hàng" style="ellipse;whiteSpace=wrap;html=1;fontSize=16;strokeWidth=2;" vertex="1" parent="1">
          <mxGeometry x="570" y="160" width="190" height="180" as="geometry" />
        </mxCell>
        <mxCell id="PVHI4mAV19_t1U58k2j2-28" style="edgeStyle=orthogonalEdgeStyle;rounded=0;orthogonalLoop=1;jettySize=auto;html=1;exitX=1;exitY=0.379;exitDx=0;exitDy=0;entryX=1;entryY=0.5;entryDx=0;entryDy=0;fontSize=16;exitPerimeter=0;" edge="1" parent="1" source="PVHI4mAV19_t1U58k2j2-7" target="PVHI4mAV19_t1U58k2j2-10">
          <mxGeometry relative="1" as="geometry" />
        </mxCell>
        <mxCell id="PVHI4mAV19_t1U58k2j2-29" value="&lt;font style=&quot;font-size: 14px&quot;&gt;Yêu cầu bổ sung hàng&lt;/font&gt;" style="edgeLabel;html=1;align=center;verticalAlign=middle;resizable=0;points=[];fontSize=16;rotation=270;" vertex="1" connectable="0" parent="PVHI4mAV19_t1U58k2j2-28">
          <mxGeometry x="-0.0357" y="3" relative="1" as="geometry">
            <mxPoint x="-15.2" as="offset" />
          </mxGeometry>
        </mxCell>
        <mxCell id="PVHI4mAV19_t1U58k2j2-32" style="edgeStyle=orthogonalEdgeStyle;rounded=0;orthogonalLoop=1;jettySize=auto;html=1;entryX=0.5;entryY=1;entryDx=0;entryDy=0;fontSize=13;" edge="1" parent="1" source="PVHI4mAV19_t1U58k2j2-7" target="PVHI4mAV19_t1U58k2j2-30">
          <mxGeometry relative="1" as="geometry">
            <Array as="points">
              <mxPoint x="450" y="740" />
            </Array>
          </mxGeometry>
        </mxCell>
        <mxCell id="PVHI4mAV19_t1U58k2j2-74" value="Xác nhận cập nhật giá mặt hàng" style="edgeStyle=orthogonalEdgeStyle;rounded=1;jumpStyle=arc;jumpSize=6;orthogonalLoop=1;jettySize=auto;html=1;exitX=0.31;exitY=0.959;exitDx=0;exitDy=0;shadow=0;startArrow=none;startFill=0;targetPerimeterSpacing=0;strokeColor=#000000;fontSize=13;entryX=0.729;entryY=0.965;entryDx=0;entryDy=0;entryPerimeter=0;exitPerimeter=0;" edge="1" parent="1" source="PVHI4mAV19_t1U58k2j2-7" target="PVHI4mAV19_t1U58k2j2-8">
          <mxGeometry x="-0.0022" y="10" relative="1" as="geometry">
            <mxPoint x="170" y="830" as="targetPoint" />
            <Array as="points">
              <mxPoint x="629" y="890" />
              <mxPoint x="170" y="890" />
              <mxPoint x="170" y="804" />
            </Array>
            <mxPoint as="offset" />
          </mxGeometry>
        </mxCell>
        <mxCell id="PVHI4mAV19_t1U58k2j2-75" value="Xác nhận cập nhật chương trình khuyến mại" style="edgeStyle=orthogonalEdgeStyle;rounded=1;jumpStyle=arc;jumpSize=6;orthogonalLoop=1;jettySize=auto;html=1;exitX=0.5;exitY=1;exitDx=0;exitDy=0;entryX=0.701;entryY=0.983;entryDx=0;entryDy=0;entryPerimeter=0;shadow=0;startArrow=none;startFill=0;targetPerimeterSpacing=0;strokeColor=#000000;fontSize=13;" edge="1" parent="1" source="PVHI4mAV19_t1U58k2j2-7" target="PVHI4mAV19_t1U58k2j2-8">
          <mxGeometry x="0.0067" y="10" relative="1" as="geometry">
            <Array as="points">
              <mxPoint x="665" y="920" />
              <mxPoint x="150" y="920" />
              <mxPoint x="150" y="807" />
            </Array>
            <mxPoint as="offset" />
          </mxGeometry>
        </mxCell>
        <mxCell id="PVHI4mAV19_t1U58k2j2-7" value="Quản lý mặt hàng" style="ellipse;whiteSpace=wrap;html=1;fontSize=16;strokeWidth=2;" vertex="1" parent="1">
          <mxGeometry x="570" y="630" width="190" height="180" as="geometry" />
        </mxCell>
        <mxCell id="PVHI4mAV19_t1U58k2j2-62" value="Yêu cầu cập nhật giá mặt hàng" style="edgeStyle=orthogonalEdgeStyle;rounded=1;jumpStyle=arc;jumpSize=6;orthogonalLoop=1;jettySize=auto;html=1;exitX=1;exitY=1;exitDx=0;exitDy=0;entryX=0;entryY=1;entryDx=0;entryDy=0;shadow=0;startArrow=none;startFill=0;targetPerimeterSpacing=0;strokeColor=#000000;fontSize=13;" edge="1" parent="1" source="PVHI4mAV19_t1U58k2j2-8" target="PVHI4mAV19_t1U58k2j2-7">
          <mxGeometry x="0.0224" y="-16" relative="1" as="geometry">
            <mxPoint as="offset" />
          </mxGeometry>
        </mxCell>
        <mxCell id="PVHI4mAV19_t1U58k2j2-71" style="edgeStyle=orthogonalEdgeStyle;rounded=1;jumpStyle=arc;jumpSize=6;orthogonalLoop=1;jettySize=auto;html=1;exitX=0;exitY=0;exitDx=0;exitDy=0;shadow=0;startArrow=none;startFill=0;targetPerimeterSpacing=0;strokeColor=#000000;fontSize=13;" edge="1" parent="1" source="PVHI4mAV19_t1U58k2j2-8" target="PVHI4mAV19_t1U58k2j2-11">
          <mxGeometry relative="1" as="geometry">
            <Array as="points">
              <mxPoint x="-120" y="656" />
              <mxPoint x="-120" y="1160" />
            </Array>
          </mxGeometry>
        </mxCell>
        <mxCell id="PVHI4mAV19_t1U58k2j2-73" value="Trả lời yêu cầu cập nhật giá mặt hàng" style="edgeLabel;html=1;align=center;verticalAlign=middle;resizable=0;points=[];fontSize=13;rotation=270;" vertex="1" connectable="0" parent="PVHI4mAV19_t1U58k2j2-71">
          <mxGeometry x="0.1427" y="-3" relative="1" as="geometry">
            <mxPoint x="-7" y="-26.58" as="offset" />
          </mxGeometry>
        </mxCell>
        <mxCell id="PVHI4mAV19_t1U58k2j2-82" value="" style="edgeStyle=orthogonalEdgeStyle;rounded=1;jumpStyle=arc;jumpSize=6;orthogonalLoop=1;jettySize=auto;html=1;exitX=0.5;exitY=0;exitDx=0;exitDy=0;entryX=0;entryY=0.75;entryDx=0;entryDy=0;shadow=0;startArrow=none;startFill=0;targetPerimeterSpacing=0;strokeColor=#000000;fontSize=13;" edge="1" parent="1" source="PVHI4mAV19_t1U58k2j2-8" target="PVHI4mAV19_t1U58k2j2-11">
          <mxGeometry relative="1" as="geometry">
            <Array as="points">
              <mxPoint x="85" y="610" />
              <mxPoint x="-230" y="610" />
              <mxPoint x="-230" y="1203" />
            </Array>
          </mxGeometry>
        </mxCell>
        <mxCell id="PVHI4mAV19_t1U58k2j2-83" value="Trả lời yêu cầu thực hiện tích điểm đổi quà" style="edgeLabel;html=1;align=center;verticalAlign=middle;resizable=0;points=[];fontSize=13;rotation=270;" vertex="1" connectable="0" parent="PVHI4mAV19_t1U58k2j2-82">
          <mxGeometry x="0.0458" y="4" relative="1" as="geometry">
            <mxPoint x="-24" y="40" as="offset" />
          </mxGeometry>
        </mxCell>
        <mxCell id="PVHI4mAV19_t1U58k2j2-84" value="Yêu cầu thực hiện tích điểm đổi quà" style="edgeStyle=orthogonalEdgeStyle;rounded=1;jumpStyle=arc;jumpSize=6;orthogonalLoop=1;jettySize=auto;html=1;exitX=1;exitY=0;exitDx=0;exitDy=0;entryX=1;entryY=1;entryDx=0;entryDy=0;shadow=0;startArrow=none;startFill=0;targetPerimeterSpacing=0;strokeColor=#000000;fontSize=13;" edge="1" parent="1" source="PVHI4mAV19_t1U58k2j2-8" target="PVHI4mAV19_t1U58k2j2-6">
          <mxGeometry x="0.1145" y="10" relative="1" as="geometry">
            <Array as="points">
              <mxPoint x="380" y="656" />
              <mxPoint x="380" y="560" />
              <mxPoint x="732" y="560" />
            </Array>
            <mxPoint as="offset" />
          </mxGeometry>
        </mxCell>
        <mxCell id="PVHI4mAV19_t1U58k2j2-8" value="Quản lý chung" style="ellipse;whiteSpace=wrap;html=1;fontSize=16;strokeWidth=2;" vertex="1" parent="1">
          <mxGeometry x="-10" y="630" width="190" height="180" as="geometry" />
        </mxCell>
        <mxCell id="PVHI4mAV19_t1U58k2j2-12" value="" style="edgeStyle=orthogonalEdgeStyle;rounded=0;orthogonalLoop=1;jettySize=auto;html=1;exitX=0;exitY=0.5;exitDx=0;exitDy=0;entryX=0;entryY=0;entryDx=0;entryDy=0;fontSize=14;" edge="1" parent="1" source="PVHI4mAV19_t1U58k2j2-9" target="PVHI4mAV19_t1U58k2j2-1">
          <mxGeometry x="-0.257" y="-10" relative="1" as="geometry">
            <Array as="points">
              <mxPoint x="280" y="-180" />
              <mxPoint x="18" y="-180" />
            </Array>
            <mxPoint as="offset" />
          </mxGeometry>
        </mxCell>
        <mxCell id="PVHI4mAV19_t1U58k2j2-14" style="edgeStyle=orthogonalEdgeStyle;rounded=0;orthogonalLoop=1;jettySize=auto;html=1;exitX=0;exitY=0.75;exitDx=0;exitDy=0;entryX=0.358;entryY=0.005;entryDx=0;entryDy=0;entryPerimeter=0;fontSize=14;" edge="1" parent="1" source="PVHI4mAV19_t1U58k2j2-9" target="PVHI4mAV19_t1U58k2j2-1">
          <mxGeometry relative="1" as="geometry">
            <Array as="points">
              <mxPoint x="280" y="-160" />
              <mxPoint x="58" y="-160" />
            </Array>
          </mxGeometry>
        </mxCell>
        <mxCell id="PVHI4mAV19_t1U58k2j2-15" value="Yêu cầu thanh toán online" style="edgeLabel;html=1;align=center;verticalAlign=middle;resizable=0;points=[];fontSize=14;rotation=0;" vertex="1" connectable="0" parent="PVHI4mAV19_t1U58k2j2-14">
          <mxGeometry x="0.2064" y="-2" relative="1" as="geometry">
            <mxPoint x="103.99" y="-70.5" as="offset" />
          </mxGeometry>
        </mxCell>
        <mxCell id="PVHI4mAV19_t1U58k2j2-16" value="" style="edgeStyle=orthogonalEdgeStyle;rounded=0;orthogonalLoop=1;jettySize=auto;html=1;exitX=1.003;exitY=0.849;exitDx=0;exitDy=0;fontSize=14;exitPerimeter=0;" edge="1" parent="1" source="PVHI4mAV19_t1U58k2j2-9" target="PVHI4mAV19_t1U58k2j2-6">
          <mxGeometry x="-0.5733" y="10" relative="1" as="geometry">
            <Array as="points">
              <mxPoint x="431" y="-83" />
              <mxPoint x="431" y="-80" />
              <mxPoint x="620" y="-80" />
            </Array>
            <mxPoint as="offset" />
          </mxGeometry>
        </mxCell>
        <mxCell id="PVHI4mAV19_t1U58k2j2-17" value="&lt;font style=&quot;font-size: 13px;&quot;&gt;Yêu cầu tạo tài khoản&lt;/font&gt;" style="edgeLabel;html=1;align=center;verticalAlign=middle;resizable=0;points=[];fontSize=13;rotation=270;" vertex="1" connectable="0" parent="PVHI4mAV19_t1U58k2j2-16">
          <mxGeometry x="-0.552" y="-2" relative="1" as="geometry">
            <mxPoint x="88.11" y="128" as="offset" />
          </mxGeometry>
        </mxCell>
        <mxCell id="PVHI4mAV19_t1U58k2j2-18" style="edgeStyle=orthogonalEdgeStyle;rounded=0;orthogonalLoop=1;jettySize=auto;html=1;exitX=1.009;exitY=0.692;exitDx=0;exitDy=0;fontSize=13;exitPerimeter=0;" edge="1" parent="1" source="PVHI4mAV19_t1U58k2j2-9" target="PVHI4mAV19_t1U58k2j2-6">
          <mxGeometry relative="1" as="geometry">
            <Array as="points">
              <mxPoint x="430" y="-106" />
              <mxPoint x="430" y="-110" />
              <mxPoint x="650" y="-110" />
            </Array>
          </mxGeometry>
        </mxCell>
        <mxCell id="PVHI4mAV19_t1U58k2j2-19" value="Yêu cầu xem thông tin mặt hàng" style="edgeLabel;html=1;align=center;verticalAlign=middle;resizable=0;points=[];fontSize=13;rotation=270;" vertex="1" connectable="0" parent="PVHI4mAV19_t1U58k2j2-18">
          <mxGeometry x="0.3399" y="-2" relative="1" as="geometry">
            <mxPoint x="-8.09" as="offset" />
          </mxGeometry>
        </mxCell>
        <mxCell id="PVHI4mAV19_t1U58k2j2-20" style="edgeStyle=orthogonalEdgeStyle;rounded=0;orthogonalLoop=1;jettySize=auto;html=1;exitX=1;exitY=0.5;exitDx=0;exitDy=0;fontSize=13;" edge="1" parent="1" source="PVHI4mAV19_t1U58k2j2-9" target="PVHI4mAV19_t1U58k2j2-6">
          <mxGeometry relative="1" as="geometry">
            <mxPoint x="650" y="158" as="targetPoint" />
            <Array as="points">
              <mxPoint x="690" y="-135" />
            </Array>
          </mxGeometry>
        </mxCell>
        <mxCell id="PVHI4mAV19_t1U58k2j2-23" value="Yêu cầu xem thông tin tài khoản" style="edgeLabel;html=1;align=center;verticalAlign=middle;resizable=0;points=[];fontSize=13;rotation=270;" vertex="1" connectable="0" parent="PVHI4mAV19_t1U58k2j2-20">
          <mxGeometry x="0.5125" y="-1" relative="1" as="geometry">
            <mxPoint x="-11.39" as="offset" />
          </mxGeometry>
        </mxCell>
        <mxCell id="PVHI4mAV19_t1U58k2j2-24" value="Yêu cầu làm thẻ khách hàng" style="edgeStyle=orthogonalEdgeStyle;rounded=0;orthogonalLoop=1;jettySize=auto;html=1;exitX=1.015;exitY=0.387;exitDx=0;exitDy=0;fontSize=13;exitPerimeter=0;entryX=0.781;entryY=0.068;entryDx=0;entryDy=0;entryPerimeter=0;" edge="1" parent="1" source="PVHI4mAV19_t1U58k2j2-9" target="PVHI4mAV19_t1U58k2j2-6">
          <mxGeometry x="-0.5352" y="10" relative="1" as="geometry">
            <mxPoint x="780" y="110" as="targetPoint" />
            <Array as="points">
              <mxPoint x="430" y="-152" />
              <mxPoint x="430" y="-180" />
              <mxPoint x="718" y="-180" />
            </Array>
            <mxPoint as="offset" />
          </mxGeometry>
        </mxCell>
        <mxCell id="PVHI4mAV19_t1U58k2j2-25" value="Yêu cầu đổi/ trả hàng" style="edgeStyle=orthogonalEdgeStyle;rounded=0;orthogonalLoop=1;jettySize=auto;html=1;exitX=0.998;exitY=0.401;exitDx=0;exitDy=0;entryX=0.701;entryY=0.039;entryDx=0;entryDy=0;entryPerimeter=0;fontSize=13;exitPerimeter=0;" edge="1" parent="1" source="PVHI4mAV19_t1U58k2j2-9" target="PVHI4mAV19_t1U58k2j2-6">
          <mxGeometry x="-0.5079" y="10" relative="1" as="geometry">
            <Array as="points">
              <mxPoint x="703" y="-150" />
            </Array>
            <mxPoint as="offset" />
          </mxGeometry>
        </mxCell>
        <mxCell id="PVHI4mAV19_t1U58k2j2-77" style="edgeStyle=orthogonalEdgeStyle;rounded=1;jumpStyle=arc;jumpSize=6;orthogonalLoop=1;jettySize=auto;html=1;exitX=1;exitY=0.75;exitDx=0;exitDy=0;entryX=0.068;entryY=0.24;entryDx=0;entryDy=0;entryPerimeter=0;shadow=0;startArrow=none;startFill=0;targetPerimeterSpacing=0;strokeColor=#000000;fontSize=13;" edge="1" parent="1" source="PVHI4mAV19_t1U58k2j2-9" target="PVHI4mAV19_t1U58k2j2-6">
          <mxGeometry relative="1" as="geometry" />
        </mxCell>
        <mxCell id="PVHI4mAV19_t1U58k2j2-78" value="Yêu cầu tham gia đổi quà" style="edgeLabel;html=1;align=center;verticalAlign=middle;resizable=0;points=[];fontSize=13;rotation=270;" vertex="1" connectable="0" parent="PVHI4mAV19_t1U58k2j2-77">
          <mxGeometry x="-0.1679" y="3" relative="1" as="geometry">
            <mxPoint x="-15.9" y="80.4" as="offset" />
          </mxGeometry>
        </mxCell>
        <mxCell id="PVHI4mAV19_t1U58k2j2-9" value="Khách hàng" style="rounded=0;whiteSpace=wrap;html=1;strokeWidth=2;fontSize=14;" vertex="1" parent="1">
          <mxGeometry x="280" y="-210" width="170" height="150" as="geometry" />
        </mxCell>
        <mxCell id="PVHI4mAV19_t1U58k2j2-45" value="" style="edgeStyle=orthogonalEdgeStyle;rounded=1;jumpStyle=arc;jumpSize=6;orthogonalLoop=1;jettySize=auto;html=1;exitX=1.009;exitY=0.85;exitDx=0;exitDy=0;entryX=0.978;entryY=0.301;entryDx=0;entryDy=0;shadow=0;startArrow=none;startFill=0;targetPerimeterSpacing=0;strokeColor=#000000;fontSize=13;entryPerimeter=0;exitPerimeter=0;" edge="1" parent="1" source="PVHI4mAV19_t1U58k2j2-10" target="PVHI4mAV19_t1U58k2j2-7">
          <mxGeometry relative="1" as="geometry">
            <Array as="points">
              <mxPoint x="810" y="1218" />
              <mxPoint x="810" y="684" />
            </Array>
          </mxGeometry>
        </mxCell>
        <mxCell id="PVHI4mAV19_t1U58k2j2-46" value="Hàng hóa bổ sung" style="edgeLabel;html=1;align=center;verticalAlign=middle;resizable=0;points=[];fontSize=13;rotation=270;" vertex="1" connectable="0" parent="PVHI4mAV19_t1U58k2j2-45">
          <mxGeometry x="-0.1078" y="1" relative="1" as="geometry">
            <mxPoint x="-14" y="-49.97" as="offset" />
          </mxGeometry>
        </mxCell>
        <mxCell id="PVHI4mAV19_t1U58k2j2-10" value="Kho" style="rounded=0;whiteSpace=wrap;html=1;strokeWidth=2;fontSize=14;" vertex="1" parent="1">
          <mxGeometry x="580" y="1090" width="170" height="150" as="geometry" />
        </mxCell>
        <mxCell id="PVHI4mAV19_t1U58k2j2-47" value="" style="edgeStyle=orthogonalEdgeStyle;rounded=1;jumpStyle=arc;jumpSize=6;orthogonalLoop=1;jettySize=auto;html=1;exitX=0.75;exitY=0;exitDx=0;exitDy=0;entryX=0.64;entryY=0.989;entryDx=0;entryDy=0;entryPerimeter=0;shadow=0;startArrow=none;startFill=0;targetPerimeterSpacing=0;strokeColor=#000000;fontSize=13;" edge="1" parent="1" source="PVHI4mAV19_t1U58k2j2-11" target="PVHI4mAV19_t1U58k2j2-8">
          <mxGeometry x="0.2547" y="20" relative="1" as="geometry">
            <Array as="points">
              <mxPoint x="112" y="1090" />
            </Array>
            <mxPoint as="offset" />
          </mxGeometry>
        </mxCell>
        <mxCell id="PVHI4mAV19_t1U58k2j2-60" value="Yêu cầu cập nhật danh sách mặt hàng" style="edgeLabel;html=1;align=center;verticalAlign=middle;resizable=0;points=[];fontSize=13;rotation=270;" vertex="1" connectable="0" parent="PVHI4mAV19_t1U58k2j2-47">
          <mxGeometry x="-0.1162" relative="1" as="geometry">
            <mxPoint x="8.400000000000002" y="-8.1" as="offset" />
          </mxGeometry>
        </mxCell>
        <mxCell id="PVHI4mAV19_t1U58k2j2-59" value="" style="edgeStyle=orthogonalEdgeStyle;rounded=1;jumpStyle=arc;jumpSize=6;orthogonalLoop=1;jettySize=auto;html=1;exitX=0.209;exitY=-0.01;exitDx=0;exitDy=0;shadow=0;startArrow=none;startFill=0;targetPerimeterSpacing=0;strokeColor=#000000;fontSize=13;exitPerimeter=0;entryX=0;entryY=1;entryDx=0;entryDy=0;" edge="1" parent="1" source="PVHI4mAV19_t1U58k2j2-11" target="PVHI4mAV19_t1U58k2j2-8">
          <mxGeometry relative="1" as="geometry">
            <mxPoint x="16" y="870" as="targetPoint" />
            <Array as="points">
              <mxPoint x="18" y="1089" />
            </Array>
          </mxGeometry>
        </mxCell>
        <mxCell id="PVHI4mAV19_t1U58k2j2-61" value="Yêu cầu cập nhật chương trình khuyến mại" style="edgeLabel;html=1;align=center;verticalAlign=middle;resizable=0;points=[];fontSize=13;rotation=270;" vertex="1" connectable="0" parent="PVHI4mAV19_t1U58k2j2-59">
          <mxGeometry x="0.1295" y="4" relative="1" as="geometry">
            <mxPoint x="-13.8" y="12.2" as="offset" />
          </mxGeometry>
        </mxCell>
        <mxCell id="PVHI4mAV19_t1U58k2j2-70" value="" style="edgeStyle=orthogonalEdgeStyle;rounded=1;jumpStyle=arc;jumpSize=6;orthogonalLoop=1;jettySize=auto;html=1;exitX=0;exitY=0.25;exitDx=0;exitDy=0;entryX=0;entryY=0.5;entryDx=0;entryDy=0;shadow=0;startArrow=none;startFill=0;targetPerimeterSpacing=0;strokeColor=#000000;fontSize=13;" edge="1" parent="1" source="PVHI4mAV19_t1U58k2j2-11" target="PVHI4mAV19_t1U58k2j2-8">
          <mxGeometry relative="1" as="geometry">
            <Array as="points">
              <mxPoint x="-70" y="1128" />
              <mxPoint x="-70" y="720" />
            </Array>
          </mxGeometry>
        </mxCell>
        <mxCell id="PVHI4mAV19_t1U58k2j2-72" value="Yêu cầu cập nhật giá mặt hàng" style="edgeLabel;html=1;align=center;verticalAlign=middle;resizable=0;points=[];fontSize=13;rotation=270;" vertex="1" connectable="0" parent="PVHI4mAV19_t1U58k2j2-70">
          <mxGeometry x="-0.0801" y="2" relative="1" as="geometry">
            <mxPoint x="-8" as="offset" />
          </mxGeometry>
        </mxCell>
        <mxCell id="PVHI4mAV19_t1U58k2j2-80" style="edgeStyle=orthogonalEdgeStyle;rounded=1;jumpStyle=arc;jumpSize=6;orthogonalLoop=1;jettySize=auto;html=1;entryX=0.23;entryY=0.082;entryDx=0;entryDy=0;entryPerimeter=0;shadow=0;startArrow=none;startFill=0;targetPerimeterSpacing=0;strokeColor=#000000;fontSize=13;" edge="1" parent="1" source="PVHI4mAV19_t1U58k2j2-11" target="PVHI4mAV19_t1U58k2j2-8">
          <mxGeometry relative="1" as="geometry">
            <Array as="points">
              <mxPoint x="-190" y="1190" />
              <mxPoint x="-190" y="645" />
            </Array>
          </mxGeometry>
        </mxCell>
        <mxCell id="PVHI4mAV19_t1U58k2j2-81" value="Yêu cầu thực hiện tích điểm đổi quà" style="edgeLabel;html=1;align=center;verticalAlign=middle;resizable=0;points=[];fontSize=13;rotation=270;" vertex="1" connectable="0" parent="PVHI4mAV19_t1U58k2j2-80">
          <mxGeometry x="-0.165" relative="1" as="geometry">
            <mxPoint x="-10" as="offset" />
          </mxGeometry>
        </mxCell>
        <mxCell id="PVHI4mAV19_t1U58k2j2-11" value="Công ty" style="rounded=0;whiteSpace=wrap;html=1;strokeWidth=2;fontSize=14;" vertex="1" parent="1">
          <mxGeometry x="-20" y="1090" width="170" height="150" as="geometry" />
        </mxCell>
        <mxCell id="PVHI4mAV19_t1U58k2j2-13" value="Yêu cầu thanh toán trực tiếp" style="text;html=1;align=center;verticalAlign=middle;resizable=0;points=[];autosize=1;fontSize=14;rotation=270;" vertex="1" parent="1">
          <mxGeometry x="-95" y="30" width="190" height="20" as="geometry" />
        </mxCell>
        <mxCell id="PVHI4mAV19_t1U58k2j2-21" value="Hóa đơn thanh toán" style="shape=partialRectangle;whiteSpace=wrap;html=1;left=0;right=0;fillColor=none;strokeWidth=2;fontSize=13;" vertex="1" parent="1">
          <mxGeometry x="120" y="420" width="120" height="60" as="geometry" />
        </mxCell>
        <mxCell id="PVHI4mAV19_t1U58k2j2-38" style="edgeStyle=orthogonalEdgeStyle;rounded=0;orthogonalLoop=1;jettySize=auto;html=1;exitX=0.75;exitY=0;exitDx=0;exitDy=0;entryX=-0.005;entryY=0.572;entryDx=0;entryDy=0;startArrow=none;startFill=0;fontSize=13;entryPerimeter=0;" edge="1" parent="1" source="PVHI4mAV19_t1U58k2j2-22" target="PVHI4mAV19_t1U58k2j2-6">
          <mxGeometry relative="1" as="geometry" />
        </mxCell>
        <mxCell id="PVHI4mAV19_t1U58k2j2-40" style="edgeStyle=orthogonalEdgeStyle;rounded=0;orthogonalLoop=1;jettySize=auto;html=1;exitX=0.25;exitY=0;exitDx=0;exitDy=0;entryX=1;entryY=0.5;entryDx=0;entryDy=0;startArrow=none;startFill=0;fontSize=13;" edge="1" parent="1" source="PVHI4mAV19_t1U58k2j2-22" target="PVHI4mAV19_t1U58k2j2-1">
          <mxGeometry relative="1" as="geometry" />
        </mxCell>
        <mxCell id="PVHI4mAV19_t1U58k2j2-48" style="edgeStyle=orthogonalEdgeStyle;rounded=1;jumpStyle=arc;jumpSize=6;orthogonalLoop=1;jettySize=auto;html=1;exitX=0.75;exitY=1;exitDx=0;exitDy=0;entryX=0.248;entryY=0.059;entryDx=0;entryDy=0;entryPerimeter=0;shadow=0;startArrow=classic;startFill=1;targetPerimeterSpacing=0;strokeColor=#000000;fontSize=13;" edge="1" parent="1" source="PVHI4mAV19_t1U58k2j2-22" target="PVHI4mAV19_t1U58k2j2-7">
          <mxGeometry relative="1" as="geometry" />
        </mxCell>
        <mxCell id="PVHI4mAV19_t1U58k2j2-22" value="Hàng hóa" style="shape=partialRectangle;whiteSpace=wrap;html=1;left=0;right=0;fillColor=none;strokeWidth=2;fontSize=13;" vertex="1" parent="1">
          <mxGeometry x="330" y="480" width="120" height="60" as="geometry" />
        </mxCell>
        <mxCell id="PVHI4mAV19_t1U58k2j2-26" value="Tài khoản khách hàng" style="shape=partialRectangle;whiteSpace=wrap;html=1;left=0;right=0;fillColor=none;strokeWidth=2;fontSize=13;" vertex="1" parent="1">
          <mxGeometry x="530" y="410" width="120" height="60" as="geometry" />
        </mxCell>
        <mxCell id="PVHI4mAV19_t1U58k2j2-34" style="edgeStyle=orthogonalEdgeStyle;rounded=0;orthogonalLoop=1;jettySize=auto;html=1;exitX=0.25;exitY=1;exitDx=0;exitDy=0;entryX=0.932;entryY=0.781;entryDx=0;entryDy=0;entryPerimeter=0;fontSize=13;" edge="1" parent="1" source="PVHI4mAV19_t1U58k2j2-30" target="PVHI4mAV19_t1U58k2j2-8">
          <mxGeometry relative="1" as="geometry" />
        </mxCell>
        <mxCell id="PVHI4mAV19_t1U58k2j2-30" value="Phiếu bổ sung hàng" style="shape=partialRectangle;whiteSpace=wrap;html=1;left=0;right=0;fillColor=none;strokeWidth=2;fontSize=13;" vertex="1" parent="1">
          <mxGeometry x="390" y="640" width="120" height="60" as="geometry" />
        </mxCell>
        <mxCell id="PVHI4mAV19_t1U58k2j2-36" style="edgeStyle=orthogonalEdgeStyle;rounded=0;orthogonalLoop=1;jettySize=auto;html=1;exitX=0.25;exitY=0;exitDx=0;exitDy=0;entryX=0.892;entryY=0.145;entryDx=0;entryDy=0;entryPerimeter=0;startArrow=none;startFill=0;fontSize=13;" edge="1" parent="1" source="PVHI4mAV19_t1U58k2j2-31" target="PVHI4mAV19_t1U58k2j2-1">
          <mxGeometry relative="1" as="geometry">
            <Array as="points">
              <mxPoint x="250" y="150" />
              <mxPoint x="160" y="150" />
            </Array>
          </mxGeometry>
        </mxCell>
        <mxCell id="PVHI4mAV19_t1U58k2j2-31" value="Thẻ khách hàng" style="shape=partialRectangle;whiteSpace=wrap;html=1;left=0;right=0;fillColor=none;strokeWidth=2;fontSize=13;" vertex="1" parent="1">
          <mxGeometry x="220" y="170" width="120" height="60" as="geometry" />
        </mxCell>
        <mxCell id="PVHI4mAV19_t1U58k2j2-42" style="edgeStyle=orthogonalEdgeStyle;rounded=0;orthogonalLoop=1;jettySize=auto;html=1;exitX=0.75;exitY=0;exitDx=0;exitDy=0;entryX=0.053;entryY=0.778;entryDx=0;entryDy=0;entryPerimeter=0;startArrow=none;startFill=0;fontSize=13;jumpStyle=arc;jumpSize=6;shadow=0;targetPerimeterSpacing=0;" edge="1" parent="1" source="PVHI4mAV19_t1U58k2j2-21" target="PVHI4mAV19_t1U58k2j2-6">
          <mxGeometry relative="1" as="geometry">
            <Array as="points">
              <mxPoint x="210" y="370" />
              <mxPoint x="580" y="370" />
            </Array>
          </mxGeometry>
        </mxCell>
        <mxCell id="PVHI4mAV19_t1U58k2j2-57" value="Đơn đặt hàng" style="shape=partialRectangle;whiteSpace=wrap;html=1;left=0;right=0;fillColor=none;strokeWidth=2;fontSize=13;" vertex="1" parent="1">
          <mxGeometry x="170" y="10" width="120" height="60" as="geometry" />
        </mxCell>
        <mxCell id="PVHI4mAV19_t1U58k2j2-64" value="" style="endArrow=classic;html=1;shadow=0;strokeColor=#000000;fontSize=13;exitX=0.539;exitY=1.013;exitDx=0;exitDy=0;exitPerimeter=0;entryX=0.655;entryY=-0.024;entryDx=0;entryDy=0;entryPerimeter=0;" edge="1" parent="1" source="PVHI4mAV19_t1U58k2j2-8" target="PVHI4mAV19_t1U58k2j2-11">
          <mxGeometry width="50" height="50" relative="1" as="geometry">
            <mxPoint x="350" y="890" as="sourcePoint" />
            <mxPoint x="400" y="840" as="targetPoint" />
          </mxGeometry>
        </mxCell>
        <mxCell id="PVHI4mAV19_t1U58k2j2-65" value="Trả lời yêu cầu cập nhật khuyến mại" style="edgeLabel;html=1;align=center;verticalAlign=middle;resizable=0;points=[];fontSize=13;rotation=270;" vertex="1" connectable="0" parent="PVHI4mAV19_t1U58k2j2-64">
          <mxGeometry x="0.0995" y="-2" relative="1" as="geometry">
            <mxPoint x="-9.83" as="offset" />
          </mxGeometry>
        </mxCell>
        <mxCell id="PVHI4mAV19_t1U58k2j2-66" value="Yêu cầu cập nhật chương trình khuyến mại&amp;nbsp;" style="endArrow=classic;html=1;shadow=0;strokeColor=#000000;fontSize=13;entryX=0.186;entryY=0.918;entryDx=0;entryDy=0;entryPerimeter=0;" edge="1" parent="1" target="PVHI4mAV19_t1U58k2j2-7">
          <mxGeometry x="0.0961" y="-10" width="50" height="50" relative="1" as="geometry">
            <mxPoint x="140" y="795" as="sourcePoint" />
            <mxPoint x="270" y="850" as="targetPoint" />
            <Array as="points">
              <mxPoint x="230" y="795" />
              <mxPoint x="230" y="850" />
              <mxPoint x="605" y="850" />
            </Array>
            <mxPoint as="offset" />
          </mxGeometry>
        </mxCell>
        <mxCell id="PVHI4mAV19_t1U58k2j2-67" value="" style="endArrow=classic;html=1;shadow=0;strokeColor=#000000;fontSize=13;exitX=0.342;exitY=0.971;exitDx=0;exitDy=0;exitPerimeter=0;entryX=0.435;entryY=0.004;entryDx=0;entryDy=0;entryPerimeter=0;" edge="1" parent="1" source="PVHI4mAV19_t1U58k2j2-8" target="PVHI4mAV19_t1U58k2j2-11">
          <mxGeometry width="50" height="50" relative="1" as="geometry">
            <mxPoint x="-160" y="880" as="sourcePoint" />
            <mxPoint x="-110" y="830" as="targetPoint" />
          </mxGeometry>
        </mxCell>
        <mxCell id="PVHI4mAV19_t1U58k2j2-68" value="Trả lời yêu cầu cập nhật danh sách mặt hàng" style="edgeLabel;html=1;align=center;verticalAlign=middle;resizable=0;points=[];fontSize=13;rotation=270;" vertex="1" connectable="0" parent="PVHI4mAV19_t1U58k2j2-67">
          <mxGeometry x="0.1561" y="-1" relative="1" as="geometry">
            <mxPoint x="-13.39" y="-19.78" as="offset" />
          </mxGeometry>
        </mxCell>
        <mxCell id="PVHI4mAV19_t1U58k2j2-69" value="Thống kê doanh số theo ngày" style="shape=partialRectangle;whiteSpace=wrap;html=1;left=0;right=0;fillColor=none;strokeWidth=2;fontSize=13;" vertex="1" parent="1">
          <mxGeometry x="-25" y="420" width="120" height="60" as="geometry" />
        </mxCell>
        <mxCell id="PVHI4mAV19_t1U58k2j2-33" style="edgeStyle=orthogonalEdgeStyle;rounded=0;orthogonalLoop=1;jettySize=auto;html=1;exitX=0.75;exitY=1;exitDx=0;exitDy=0;entryX=1;entryY=0.5;entryDx=0;entryDy=0;fontSize=13;" edge="1" parent="1" source="PVHI4mAV19_t1U58k2j2-21" target="PVHI4mAV19_t1U58k2j2-8">
          <mxGeometry relative="1" as="geometry" />
        </mxCell>
        <mxCell id="PVHI4mAV19_t1U58k2j2-87" value="Xác nhận thực hiện tích điểm đổi quà" style="edgeStyle=orthogonalEdgeStyle;rounded=1;jumpStyle=arc;jumpSize=6;orthogonalLoop=1;jettySize=auto;html=1;exitX=0;exitY=0.667;exitDx=0;exitDy=0;entryX=0.724;entryY=0.041;entryDx=0;entryDy=0;entryPerimeter=0;shadow=0;startArrow=none;startFill=0;targetPerimeterSpacing=0;strokeColor=#000000;fontSize=13;exitPerimeter=0;" edge="1" parent="1" source="PVHI4mAV19_t1U58k2j2-6" target="PVHI4mAV19_t1U58k2j2-8">
          <mxGeometry x="-0.6499" y="10" relative="1" as="geometry">
            <Array as="points">
              <mxPoint x="280" y="280" />
              <mxPoint x="280" y="540" />
              <mxPoint x="128" y="540" />
            </Array>
            <mxPoint as="offset" />
          </mxGeometry>
        </mxCell>
        <mxCell id="PVHI4mAV19_t1U58k2j2-91" value="Thống kê doanh số theo tháng" style="endArrow=classic;html=1;shadow=0;strokeColor=#000000;fontSize=13;exitX=0.64;exitY=0.017;exitDx=0;exitDy=0;exitPerimeter=0;entryX=0.002;entryY=0.9;entryDx=0;entryDy=0;entryPerimeter=0;jumpStyle=arc;" edge="1" parent="1" source="PVHI4mAV19_t1U58k2j2-8" target="PVHI4mAV19_t1U58k2j2-11">
          <mxGeometry x="0.7443" y="-15" width="50" height="50" relative="1" as="geometry">
            <mxPoint x="30" y="570" as="sourcePoint" />
            <mxPoint x="80" y="520" as="targetPoint" />
            <Array as="points">
              <mxPoint x="112" y="580" />
              <mxPoint x="-310" y="580" />
              <mxPoint x="-310" y="1225" />
            </Array>
            <mxPoint as="offset" />
          </mxGeometry>
        </mxCell>
      </root>
    </mxGraphModel>
  </diagram>
</mxfile>
